<mxfile host="Electron" modified="2023-10-24T13:07:29.963Z" agent="Mozilla/5.0 (Windows NT 10.0; Win64; x64) AppleWebKit/537.36 (KHTML, like Gecko) draw.io/22.0.2 Chrome/114.0.5735.289 Electron/25.8.4 Safari/537.36" etag="60ukSolQugGfqpLyvmf1" version="22.0.2" type="device" pages="4">
  <diagram id="_4BQD0DVEFqlqM7314NB" name="깃허브 설정하기">
    <mxGraphModel dx="1418" dy="828" grid="1" gridSize="10" guides="1" tooltips="1" connect="1" arrows="1" fold="1" page="1" pageScale="1" pageWidth="827" pageHeight="1169" math="0" shadow="0">
      <root>
        <mxCell id="0" />
        <mxCell id="1" parent="0" />
      </root>
    </mxGraphModel>
  </diagram>
  <diagram name="깃허브 클론받기" id="5-MNmcYYrwQ-vJmjP352">
    <mxGraphModel dx="1424" dy="1670" grid="1" gridSize="10" guides="1" tooltips="1" connect="1" arrows="1" fold="1" page="1" pageScale="1" pageWidth="827" pageHeight="1169" math="0" shadow="0">
      <root>
        <mxCell id="0" />
        <mxCell id="1" parent="0" />
        <mxCell id="so0Hu996kleGYJSV5bfe-1" value="로컬 저장소" style="shape=folder;fontStyle=1;spacingTop=10;tabWidth=40;tabHeight=14;tabPosition=left;html=1;whiteSpace=wrap;" parent="1" vertex="1">
          <mxGeometry x="90" y="350" width="130" height="90" as="geometry" />
        </mxCell>
        <mxCell id="so0Hu996kleGYJSV5bfe-4" value="&lt;span style=&quot;color: rgb(240, 240, 240); font-family: Helvetica; font-size: 12px; font-style: normal; font-variant-ligatures: normal; font-variant-caps: normal; font-weight: 400; letter-spacing: normal; orphans: 2; text-align: left; text-indent: 0px; text-transform: none; widows: 2; word-spacing: 0px; -webkit-text-stroke-width: 0px; background-color: rgb(27, 29, 30); text-decoration-thickness: initial; text-decoration-style: initial; text-decoration-color: initial; float: none; display: inline !important;&quot;&gt;$ git clone &quot;저장소 주소&quot;&lt;br&gt;&lt;/span&gt;&amp;gt;&amp;gt; 특정 저장소에 있는 소스코드 내려받기&lt;br&gt;&lt;br style=&quot;border-color: rgb(0, 0, 0); color: rgb(240, 240, 240); font-family: Helvetica; font-size: 12px; font-style: normal; font-variant-ligatures: normal; font-variant-caps: normal; font-weight: 400; letter-spacing: normal; orphans: 2; text-align: left; text-indent: 0px; text-transform: none; widows: 2; word-spacing: 0px; -webkit-text-stroke-width: 0px; background-color: rgb(27, 29, 30); text-decoration-thickness: initial; text-decoration-style: initial; text-decoration-color: initial;&quot;&gt;&lt;span style=&quot;color: rgb(240, 240, 240); font-family: Helvetica; font-size: 12px; font-style: normal; font-variant-ligatures: normal; font-variant-caps: normal; font-weight: 400; letter-spacing: normal; orphans: 2; text-align: left; text-indent: 0px; text-transform: none; widows: 2; word-spacing: 0px; -webkit-text-stroke-width: 0px; background-color: rgb(27, 29, 30); text-decoration-thickness: initial; text-decoration-style: initial; text-decoration-color: initial; float: none; display: inline !important;&quot;&gt;$ git clone -b branch1 &quot;저장소 주소&quot;&lt;br&gt;&amp;gt;&amp;gt; 특정 저장소, 특정 브런치 소스코드를 내려받기&lt;br&gt;&lt;br&gt;$ git clone &quot;저징소 주소&quot; --recursive&lt;br&gt;&amp;gt;&amp;gt; 저장소에 submodule에 포함되어 있는 경우, 모두 한번에 내려받음&lt;br&gt;&lt;br&gt;$ git clone &quot;저장소 주소&quot; .&lt;br&gt;&amp;gt;&amp;gt; 현재 폴더에 소스코드 내려받기&lt;br&gt;&lt;/span&gt;" style="text;whiteSpace=wrap;html=1;strokeColor=default;" parent="1" vertex="1">
          <mxGeometry x="240" y="170" width="390" height="180" as="geometry" />
        </mxCell>
        <mxCell id="so0Hu996kleGYJSV5bfe-5" value="&lt;font style=&quot;font-size: 35px;&quot;&gt;깃허브 클론받기&lt;/font&gt;" style="text;html=1;strokeColor=none;fillColor=none;align=left;verticalAlign=middle;whiteSpace=wrap;rounded=0;fontStyle=1" parent="1" vertex="1">
          <mxGeometry x="10" y="10" width="580" height="50" as="geometry" />
        </mxCell>
        <mxCell id="so0Hu996kleGYJSV5bfe-8" value="&lt;br&gt;&lt;span style=&quot;color: rgb(240, 240, 240); font-family: Helvetica; font-size: 12px; font-style: normal; font-variant-ligatures: normal; font-variant-caps: normal; font-weight: 400; letter-spacing: normal; orphans: 2; text-align: center; text-indent: 0px; text-transform: none; widows: 2; word-spacing: 0px; -webkit-text-stroke-width: 0px; background-color: rgb(27, 29, 30); text-decoration-thickness: initial; text-decoration-style: initial; text-decoration-color: initial; float: none; display: inline !important;&quot;&gt;원격 저장소&lt;/span&gt;" style="ellipse;shape=cloud;whiteSpace=wrap;html=1;" parent="1" vertex="1">
          <mxGeometry x="68" y="90" width="150" height="110" as="geometry" />
        </mxCell>
        <mxCell id="so0Hu996kleGYJSV5bfe-9" value="" style="endArrow=classic;html=1;rounded=0;exitX=0.55;exitY=0.95;exitDx=0;exitDy=0;exitPerimeter=0;entryX=0.462;entryY=0.133;entryDx=0;entryDy=0;entryPerimeter=0;" parent="1" source="so0Hu996kleGYJSV5bfe-8" target="so0Hu996kleGYJSV5bfe-1" edge="1">
          <mxGeometry width="50" height="50" relative="1" as="geometry">
            <mxPoint x="390" y="440" as="sourcePoint" />
            <mxPoint x="440" y="390" as="targetPoint" />
          </mxGeometry>
        </mxCell>
        <mxCell id="9xDCVhMc5Qd34DkIZvqu-1" value="&lt;font style=&quot;font-size: 35px;&quot;&gt;이미 소스코드가 있는 경우 저장소 등록하기&lt;/font&gt;" style="text;html=1;strokeColor=none;fillColor=none;align=left;verticalAlign=middle;whiteSpace=wrap;rounded=0;fontStyle=1" parent="1" vertex="1">
          <mxGeometry x="850" y="10" width="740" height="50" as="geometry" />
        </mxCell>
        <mxCell id="9xDCVhMc5Qd34DkIZvqu-2" value="로컬 저장소" style="shape=folder;fontStyle=1;spacingTop=10;tabWidth=40;tabHeight=14;tabPosition=left;html=1;whiteSpace=wrap;" parent="1" vertex="1">
          <mxGeometry x="1019" y="420" width="130" height="90" as="geometry" />
        </mxCell>
        <mxCell id="9xDCVhMc5Qd34DkIZvqu-3" value="&lt;span style=&quot;color: rgb(240, 240, 240); font-family: Helvetica; font-size: 12px; font-style: normal; font-variant-ligatures: normal; font-variant-caps: normal; font-weight: 400; letter-spacing: normal; orphans: 2; text-align: left; text-indent: 0px; text-transform: none; widows: 2; word-spacing: 0px; -webkit-text-stroke-width: 0px; background-color: rgb(27, 29, 30); text-decoration-thickness: initial; text-decoration-style: initial; text-decoration-color: initial; float: none; display: inline !important;&quot;&gt;$ git init&lt;br&gt;&amp;gt;&amp;gt; github 로컬 저장소임을 등록한다.&lt;br&gt;&lt;br&gt;$ git remote add origin &quot;저장소 주소&quot;&lt;br&gt;&amp;gt;&amp;gt; 로컬 저장소가 연동될 저장소 주소를 등록한다.&lt;br&gt;&lt;br&gt;$ git pull origin main&lt;br&gt;&amp;gt;&amp;gt; main 브런치의 소스코드로 로컬 저장소를 최신화한다.&lt;br&gt;&lt;/span&gt;" style="text;whiteSpace=wrap;html=1;strokeColor=default;" parent="1" vertex="1">
          <mxGeometry x="1100" y="280" width="390" height="130" as="geometry" />
        </mxCell>
        <mxCell id="SR76A33IuZhpA8tzBBlU-1" value="&lt;br&gt;&lt;span style=&quot;color: rgb(240, 240, 240); font-family: Helvetica; font-size: 12px; font-style: normal; font-variant-ligatures: normal; font-variant-caps: normal; font-weight: 400; letter-spacing: normal; orphans: 2; text-align: center; text-indent: 0px; text-transform: none; widows: 2; word-spacing: 0px; -webkit-text-stroke-width: 0px; background-color: rgb(27, 29, 30); text-decoration-thickness: initial; text-decoration-style: initial; text-decoration-color: initial; float: none; display: inline !important;&quot;&gt;원격 저장소&lt;/span&gt;" style="ellipse;shape=cloud;whiteSpace=wrap;html=1;" vertex="1" parent="1">
          <mxGeometry x="1004" y="160" width="150" height="110" as="geometry" />
        </mxCell>
        <mxCell id="SR76A33IuZhpA8tzBBlU-3" value="" style="endArrow=classic;html=1;rounded=0;entryX=0.515;entryY=0.144;entryDx=0;entryDy=0;entryPerimeter=0;exitX=0.55;exitY=0.95;exitDx=0;exitDy=0;exitPerimeter=0;" edge="1" parent="1" source="SR76A33IuZhpA8tzBBlU-1" target="9xDCVhMc5Qd34DkIZvqu-2">
          <mxGeometry width="50" height="50" relative="1" as="geometry">
            <mxPoint x="980" y="190" as="sourcePoint" />
            <mxPoint x="1030" y="140" as="targetPoint" />
          </mxGeometry>
        </mxCell>
        <mxCell id="SR76A33IuZhpA8tzBBlU-4" value="&lt;span style=&quot;color: rgb(240, 240, 240); font-family: Helvetica; font-size: 12px; font-style: normal; font-variant-ligatures: normal; font-variant-caps: normal; font-weight: 400; letter-spacing: normal; orphans: 2; text-align: left; text-indent: 0px; text-transform: none; widows: 2; word-spacing: 0px; -webkit-text-stroke-width: 0px; background-color: rgb(27, 29, 30); text-decoration-thickness: initial; text-decoration-style: initial; text-decoration-color: initial; float: none; display: inline !important;&quot;&gt;$ git status&lt;br&gt;&amp;gt;&amp;gt; 변경사항 확인&lt;br&gt;&lt;br&gt;$ git add . 또는 git add &quot;파일명&quot;&lt;br&gt;&amp;gt;&amp;gt; 일부 파일을 staging 상태로 전환&lt;br&gt;&lt;/span&gt;" style="text;whiteSpace=wrap;html=1;strokeColor=default;" vertex="1" parent="1">
          <mxGeometry x="1100" y="530" width="390" height="90" as="geometry" />
        </mxCell>
        <mxCell id="SR76A33IuZhpA8tzBBlU-5" value="Staging 영역" style="shape=cylinder3;whiteSpace=wrap;html=1;boundedLbl=1;backgroundOutline=1;size=15;fontFamily=Helvetica;fontSize=11;fontColor=default;" vertex="1" parent="1">
          <mxGeometry x="1016" y="640" width="136" height="80" as="geometry" />
        </mxCell>
        <mxCell id="SR76A33IuZhpA8tzBBlU-6" style="edgeStyle=none;shape=connector;rounded=0;orthogonalLoop=1;jettySize=auto;html=1;exitX=0.5;exitY=1;exitDx=0;exitDy=0;exitPerimeter=0;entryX=0.5;entryY=0;entryDx=0;entryDy=0;entryPerimeter=0;labelBackgroundColor=default;strokeColor=default;align=center;verticalAlign=middle;fontFamily=Helvetica;fontSize=11;fontColor=default;endArrow=classic;" edge="1" parent="1" source="9xDCVhMc5Qd34DkIZvqu-2" target="SR76A33IuZhpA8tzBBlU-5">
          <mxGeometry relative="1" as="geometry" />
        </mxCell>
        <mxCell id="SR76A33IuZhpA8tzBBlU-7" value="&lt;br&gt;&lt;span style=&quot;color: rgb(240, 240, 240); font-family: Helvetica; font-size: 12px; font-style: normal; font-variant-ligatures: normal; font-variant-caps: normal; font-weight: 400; letter-spacing: normal; orphans: 2; text-align: center; text-indent: 0px; text-transform: none; widows: 2; word-spacing: 0px; -webkit-text-stroke-width: 0px; background-color: rgb(27, 29, 30); text-decoration-thickness: initial; text-decoration-style: initial; text-decoration-color: initial; float: none; display: inline !important;&quot;&gt;원격 저장소&lt;/span&gt;" style="ellipse;shape=cloud;whiteSpace=wrap;html=1;" vertex="1" parent="1">
          <mxGeometry x="1004" y="840" width="150" height="110" as="geometry" />
        </mxCell>
        <mxCell id="SR76A33IuZhpA8tzBBlU-8" style="edgeStyle=none;shape=connector;rounded=0;orthogonalLoop=1;jettySize=auto;html=1;exitX=0.5;exitY=1;exitDx=0;exitDy=0;exitPerimeter=0;entryX=0.533;entryY=0.182;entryDx=0;entryDy=0;entryPerimeter=0;labelBackgroundColor=default;strokeColor=default;align=center;verticalAlign=middle;fontFamily=Helvetica;fontSize=11;fontColor=default;endArrow=classic;" edge="1" parent="1" source="SR76A33IuZhpA8tzBBlU-5" target="SR76A33IuZhpA8tzBBlU-7">
          <mxGeometry relative="1" as="geometry" />
        </mxCell>
        <mxCell id="SR76A33IuZhpA8tzBBlU-9" value="&lt;span style=&quot;color: rgb(240, 240, 240); font-family: Helvetica; font-size: 12px; font-style: normal; font-variant-ligatures: normal; font-variant-caps: normal; font-weight: 400; letter-spacing: normal; orphans: 2; text-align: left; text-indent: 0px; text-transform: none; widows: 2; word-spacing: 0px; -webkit-text-stroke-width: 0px; background-color: rgb(27, 29, 30); text-decoration-thickness: initial; text-decoration-style: initial; text-decoration-color: initial; float: none; display: inline !important;&quot;&gt;$ git commit -m &quot;커밋 메시지 작성&quot;&lt;br&gt;&amp;gt;&amp;gt; staging 상태에 있는 파일을 원격 저장소로 업로드&lt;br&gt;&lt;br&gt;$ git push origin &quot;브런치&quot;&lt;br&gt;&amp;gt;&amp;gt; 현재 등록되어있는 저장소의 &quot;브런치&quot;에 코드를 밀어넣는다.&lt;br&gt;&lt;/span&gt;" style="text;whiteSpace=wrap;html=1;strokeColor=default;" vertex="1" parent="1">
          <mxGeometry x="1100" y="740" width="390" height="90" as="geometry" />
        </mxCell>
      </root>
    </mxGraphModel>
  </diagram>
  <diagram id="vp0B4pDJoeR4anjXmB5w" name="저장소 업로드">
    <mxGraphModel dx="712" dy="835" grid="1" gridSize="10" guides="1" tooltips="1" connect="1" arrows="1" fold="1" page="1" pageScale="1" pageWidth="827" pageHeight="1169" math="0" shadow="0">
      <root>
        <mxCell id="0" />
        <mxCell id="1" parent="0" />
      </root>
    </mxGraphModel>
  </diagram>
  <diagram id="IfqmHbeodA7KW2ccSIst" name="머지하기">
    <mxGraphModel dx="162" dy="582" grid="1" gridSize="10" guides="1" tooltips="1" connect="1" arrows="1" fold="1" page="1" pageScale="1" pageWidth="827" pageHeight="1169" math="0" shadow="0">
      <root>
        <mxCell id="0" />
        <mxCell id="1" parent="0" />
        <mxCell id="wTD8dzqyEoJEbiK2ZyVc-1" value="&lt;font style=&quot;font-size: 35px;&quot;&gt;이미 소스코드가 있는 경우 저장소 등록하기&lt;/font&gt;" style="text;html=1;strokeColor=none;fillColor=none;align=left;verticalAlign=middle;whiteSpace=wrap;rounded=0;fontStyle=1" vertex="1" parent="1">
          <mxGeometry x="850" y="10" width="740" height="50" as="geometry" />
        </mxCell>
        <mxCell id="wTD8dzqyEoJEbiK2ZyVc-16" style="edgeStyle=none;shape=connector;rounded=0;orthogonalLoop=1;jettySize=auto;html=1;exitX=1;exitY=0.5;exitDx=0;exitDy=0;entryX=0;entryY=0.5;entryDx=0;entryDy=0;labelBackgroundColor=default;strokeColor=default;align=center;verticalAlign=middle;fontFamily=Helvetica;fontSize=11;fontColor=default;endArrow=classic;" edge="1" parent="1" source="wTD8dzqyEoJEbiK2ZyVc-12" target="wTD8dzqyEoJEbiK2ZyVc-13">
          <mxGeometry relative="1" as="geometry" />
        </mxCell>
        <mxCell id="wTD8dzqyEoJEbiK2ZyVc-12" value="Commit #1" style="ellipse;whiteSpace=wrap;html=1;fontFamily=Helvetica;fontSize=11;fontColor=default;" vertex="1" parent="1">
          <mxGeometry x="890" y="170" width="120" height="120" as="geometry" />
        </mxCell>
        <mxCell id="wTD8dzqyEoJEbiK2ZyVc-17" style="edgeStyle=none;shape=connector;rounded=0;orthogonalLoop=1;jettySize=auto;html=1;exitX=1;exitY=0.5;exitDx=0;exitDy=0;entryX=0;entryY=0.5;entryDx=0;entryDy=0;labelBackgroundColor=default;strokeColor=default;align=center;verticalAlign=middle;fontFamily=Helvetica;fontSize=11;fontColor=default;endArrow=classic;" edge="1" parent="1" source="wTD8dzqyEoJEbiK2ZyVc-13" target="wTD8dzqyEoJEbiK2ZyVc-14">
          <mxGeometry relative="1" as="geometry" />
        </mxCell>
        <mxCell id="wTD8dzqyEoJEbiK2ZyVc-13" value="Commit #2" style="ellipse;whiteSpace=wrap;html=1;fontFamily=Helvetica;fontSize=11;fontColor=default;" vertex="1" parent="1">
          <mxGeometry x="1110" y="170" width="120" height="120" as="geometry" />
        </mxCell>
        <mxCell id="wTD8dzqyEoJEbiK2ZyVc-14" value="Commit #3" style="ellipse;whiteSpace=wrap;html=1;fontFamily=Helvetica;fontSize=11;fontColor=default;" vertex="1" parent="1">
          <mxGeometry x="1360" y="170" width="120" height="120" as="geometry" />
        </mxCell>
        <mxCell id="wTD8dzqyEoJEbiK2ZyVc-18" value="HEAD main" style="text;html=1;strokeColor=none;fillColor=none;align=left;verticalAlign=middle;whiteSpace=wrap;rounded=0;fontSize=11;fontFamily=Helvetica;fontColor=default;" vertex="1" parent="1">
          <mxGeometry x="1120" y="120" width="130" height="30" as="geometry" />
        </mxCell>
        <mxCell id="wTD8dzqyEoJEbiK2ZyVc-19" value="HEAD branch1" style="text;html=1;strokeColor=none;fillColor=none;align=left;verticalAlign=middle;whiteSpace=wrap;rounded=0;fontSize=11;fontFamily=Helvetica;fontColor=default;" vertex="1" parent="1">
          <mxGeometry x="1350" y="130" width="140" height="30" as="geometry" />
        </mxCell>
        <mxCell id="1mmvnz8r7AzF8e-13eee-1" value="&lt;span style=&quot;color: rgb(240, 240, 240); font-family: Helvetica; font-size: 12px; font-style: normal; font-variant-ligatures: normal; font-variant-caps: normal; font-weight: 400; letter-spacing: normal; orphans: 2; text-align: left; text-indent: 0px; text-transform: none; widows: 2; word-spacing: 0px; -webkit-text-stroke-width: 0px; background-color: rgb(27, 29, 30); text-decoration-thickness: initial; text-decoration-style: initial; text-decoration-color: initial; float: none; display: inline !important;&quot;&gt;$ git add .&lt;br&gt;$ git commit -m &quot;edit code&quot;&lt;br&gt;$ git push origin branch1&lt;br&gt;$ git log --oneline --branches --graph&lt;br&gt;&amp;gt; 42d8185 (HEAD -&amp;gt; master, origin/master) first commit&lt;br style=&quot;padding: 0px; margin: 0px; font-size: 11px;&quot;&gt;&lt;span style=&quot;font-size: 11px;&quot;&gt;&amp;gt; 4c65e3e (origin/main) Initial commit&lt;/span&gt;&lt;br&gt;&lt;/span&gt;" style="text;whiteSpace=wrap;html=1;strokeColor=default;" vertex="1" parent="1">
          <mxGeometry x="1320" y="340" width="320" height="110" as="geometry" />
        </mxCell>
        <mxCell id="1mmvnz8r7AzF8e-13eee-3" value="&lt;span style=&quot;color: rgb(240, 240, 240); font-family: Helvetica; font-size: 12px; font-style: normal; font-variant-ligatures: normal; font-variant-caps: normal; font-weight: 400; letter-spacing: normal; orphans: 2; text-align: left; text-indent: 0px; text-transform: none; widows: 2; word-spacing: 0px; -webkit-text-stroke-width: 0px; background-color: rgb(27, 29, 30); text-decoration-thickness: initial; text-decoration-style: initial; text-decoration-color: initial; float: none; display: inline !important;&quot;&gt;$&amp;nbsp; git clone &quot;저징소&quot; -b main&lt;br&gt;&lt;/span&gt;" style="text;whiteSpace=wrap;html=1;strokeColor=default;" vertex="1" parent="1">
          <mxGeometry x="1090" y="310" width="160" height="30" as="geometry" />
        </mxCell>
      </root>
    </mxGraphModel>
  </diagram>
</mxfile>
